<svg xmlns="http://www.w3.org/2000/svg" xmlns:xlink="http://www.w3.org/1999/xlink" data-name="Layer 1" viewBox="0 0 3000 2250" id="empty-search"><defs><linearGradient id="a" x1="1461.839" x2="2540.646" y1="1294.646" y2="1294.646" gradientUnits="userSpaceOnUse"><stop offset="0" stop-color="#ff5607"></stop><stop offset="1" stop-color="#ffa700"></stop></linearGradient><linearGradient id="b" x1="1551.664" x2="2401.487" y1="1297.979" y2="1297.979" xlink:href="#a"></linearGradient><linearGradient id="c" x1="10430.281" x2="11509.088" y1="1294.646" y2="1294.646" gradientTransform="matrix(-1 0 0 1 11968.442 0)" xlink:href="#a"></linearGradient><linearGradient id="d" x1="10520.106" x2="11369.929" y1="1297.979" y2="1297.979" gradientTransform="matrix(-1 0 0 1 11968.442 0)" xlink:href="#a"></linearGradient></defs><g data-name="empty search"><circle cx="1494.056" cy="1236.898" r="636.214" fill="#fcfbd9"></circle><path fill="#081f2d" stroke="#081f2d" stroke-linecap="round" stroke-linejoin="round" stroke-width="7.635" d="M2217.174,1409.485c18.406.649,36.518,6.481,50.89,18,18.143,14.539,28.332,34.667,27.012,52.949-2.534,35.076-47.955,70.563-101.354,56.832l-478.7-145.482Z"></path><path fill="url(#a)" d="M2758.972,1193.309c-21.478,74.273-331.007,166.035-331.007,166.035-192.435,57.119-270.765,64.9-328.415,66.96-35.175,1.263-66.427.466-92.36-1.064a510.437,510.437,0,0,0-30.254,47.144,522.384,522.384,0,0,0-31.386,65.563l-263.117-65.563a758.364,758.364,0,0,1,84.98-173.882c45.68-69.021,88.7-134.119,166.035-162.046,38.7-14.03,74.873-14.229,104.263-11.437a657.949,657.949,0,0,0,149.345-2.792,389.354,389.354,0,0,0,47.876-9.11H2235c26.6-6.849,52.863-16.557,119.157-33.114,160.251-40.1,216.106-34.311,255.071-6.051a122.187,122.187,0,0,1,17.688,15.559l-2.793.2c25.134-.731,50.669.865,73.011,6.782,27.728,7.315,31.783,17.688,32.782,21.611,2.991,12.169-8.512,24.537-12.5,28.526l-2.992.133c23.14,1.6,37.1,7.181,43.354,18.353C2763.959,1175.953,2760.235,1188.854,2758.972,1193.309Z"></path><path fill="none" stroke="#081f2d" stroke-miterlimit="10" stroke-width="7.635" d="M2392.88 1207.91a891.913 891.913 0 01351.459-62.757M2329.913 1162.713a1081.725 1081.725 0 01315.6-78.307"></path><path fill="url(#b)" d="M1682.476,1472.366a755.622,755.622,0,0,1,84.97-173.891c45.649-69.03,88.667-134.083,165.987-162.036,54.97-19.873,104.683-11.98,137.309-7.2,85.3,12.493,93.493,44.35,177.9,72,143.132,46.879,254.743-.458,279.5,53.866,6.89,15.118,3.335,29.95,2.443,33.671-18.147,75.71-199.5,91.875-286.671,91.227a658.41,658.41,0,0,1-133.365-14.708"></path><path fill="none" stroke="#081f2d" stroke-miterlimit="10" stroke-width="7.635" d="M2070.742,1129.237c85.3,12.493,93.493,44.35,177.9,72,143.132,46.879,254.743-.458,279.5,53.866,6.89,15.118,3.335,29.95,2.443,33.671-18.147,75.71-199.5,91.875-286.671,91.227a658.41,658.41,0,0,1-133.365-14.708"></path><path fill="#b29adc" d="M1654.794,1738.882c-6.7-67.374-6.346-162.1,27.639-266.5a626.856,626.856,0,0,1,32.6-80.6c247.2,80.4,431.328,132.644,478.694,145.482,13.442,3.643,35.525,6.1,57.617-3.821,21.96-9.862,34.52-28.425,40.989-40.269l-137.3,450.365"></path><path fill="none" stroke="#081f2d" stroke-miterlimit="10" stroke-width="7.635" d="M2257.555 1607.24h0a304.374 304.374 0 01-181.233.319l-397.635-123.237M1715.027 1391.781l478.7 145.482a89.629 89.629 0 0057.617-3.821c24.739-10.429 37.132-28.74 41.223-41-.08.24-.155.484-.234.727"></path><path fill="#081f2d" stroke="#081f2d" stroke-linecap="round" stroke-linejoin="round" stroke-width="7.635" d="M782.826,1409.485c-18.406.649-36.518,6.481-50.89,18-18.143,14.539-28.332,34.667-27.012,52.949,2.534,35.076,47.955,70.563,101.354,56.832l478.695-145.482Z"></path><path fill="url(#c)" d="M241.028,1193.309c21.478,74.273,331.007,166.035,331.007,166.035,192.435,57.119,270.765,64.9,328.415,66.96,35.175,1.263,66.427.466,92.36-1.064a510.437,510.437,0,0,1,30.254,47.144,522.384,522.384,0,0,1,31.386,65.563l263.117-65.563a758.364,758.364,0,0,0-84.98-173.882c-45.68-69.021-88.7-134.119-166.035-162.046-38.7-14.03-74.873-14.229-104.263-11.437a657.949,657.949,0,0,1-149.345-2.792,389.354,389.354,0,0,1-47.876-9.11H765c-26.6-6.849-52.863-16.557-119.157-33.114-160.251-40.1-216.106-34.311-255.071-6.051a122.187,122.187,0,0,0-17.688,15.559l2.793.2c-25.134-.731-50.669.865-73.011,6.782-27.728,7.315-31.783,17.688-32.782,21.611-2.991,12.169,8.512,24.537,12.5,28.526l2.992.133c-23.14,1.6-37.1,7.181-43.354,18.353C236.041,1175.953,239.765,1188.854,241.028,1193.309Z"></path><path fill="none" stroke="#081f2d" stroke-miterlimit="10" stroke-width="7.635" d="M607.12 1207.91a891.913 891.913 0 00-351.459-62.757M670.087 1162.713a1081.725 1081.725 0 00-315.6-78.307"></path><path fill="url(#d)" d="M1317.524,1472.366a755.622,755.622,0,0,0-84.97-173.891c-45.649-69.03-88.667-134.083-165.987-162.036-54.97-19.873-104.683-11.98-137.309-7.2-85.3,12.493-93.493,44.35-177.9,72-143.132,46.879-254.743-.458-279.5,53.866-6.89,15.118-3.335,29.95-2.443,33.671,18.147,75.71,199.5,91.875,286.671,91.227a658.41,658.41,0,0,0,133.365-14.708"></path><path fill="none" stroke="#081f2d" stroke-miterlimit="10" stroke-width="7.635" d="M929.258,1129.237c-85.3,12.493-93.493,44.35-177.9,72-143.132,46.879-254.743-.458-279.5,53.866-6.89,15.118-3.335,29.95-2.443,33.671,18.147,75.71,199.5,91.875,286.671,91.227a658.41,658.41,0,0,0,133.365-14.708"></path><path fill="#b29adc" d="M1345.206,1738.882c6.7-67.374,6.346-162.1-27.639-266.5a626.856,626.856,0,0,0-32.6-80.6c-247.2,80.4-431.328,132.644-478.694,145.482-13.442,3.643-35.525,6.1-57.617-3.821-21.96-9.862-34.52-28.425-40.989-40.269l137.295,450.365"></path><path fill="none" stroke="#081f2d" stroke-miterlimit="10" stroke-width="7.635" d="M742.445 1607.24h0a304.374 304.374 0 00181.233.319l397.635-123.237M1284.973 1391.781L806.278 1537.263a89.629 89.629 0 01-57.617-3.821c-24.739-10.429-37.132-28.74-41.223-41 .08.24.155.484.234.727"></path><path fill="#ffecaf" d="M2062.794,923.972c-6.7-31.4-25.547-138.666,32.33-253.616,63.217-125.556,174.232-173.424,202.008-184.476L2010.589,345.763a84.1,84.1,0,0,0-77.346,1.692c-46.174,25.3-115.745,75.347-160.913,165.057C1714.453,627.462,1733.3,734.726,1740,766.128Z"></path><path fill="#c3e1a1" d="M1341.862,326.037C1264,295.7,1176.136,301.358,1098.843,337.948l-3.322,1.529c-76.414,35.161-136.571,97.536-163.756,175.263-38.5,110.086-5.649,235.874,74.837,313.756,76.532,74.181,191.792,100.615,302.188,72.768,41.476,96.618,152.551,359.478,165.873,388.85a44.165,44.165,0,0,0,60.52,20.979l.8-.416a44.163,44.163,0,0,0,19.447-58.474c-12.046-24.872-136.492-318.217-166.994-387.172,41.195-28.755,75.011-65.1,99.428-105.884,31.329-52.331,47.277-112,43.6-172.164C1524.679,475.191,1450.514,368.415,1341.862,326.037Zm43.056,430.489a216.4,216.4,0,0,1-154.276,70.988c-81.331,2.363-171.132-40.564-208.933-123.668-27.6-60.786-21.325-129.7,4.9-180.559,22.733-44.13,62.15-78.884,111.259-100.529,48.447-23.244,100.424-30.545,148.728-19.1,55.747,13.142,112.108,53.23,140.317,113.738C1465.5,600.138,1439.682,696.266,1384.918,756.526Z"></path><path fill="#fff" stroke="#081f2d" stroke-linecap="round" stroke-linejoin="round" stroke-width="7.635" d="M1384.918,756.526a216.4,216.4,0,0,1-154.276,70.988c-81.331,2.363-171.132-40.564-208.933-123.668-27.6-60.786-21.325-129.7,4.9-180.559,22.733-44.13,62.15-78.884,111.259-100.529,48.447-23.244,100.424-30.545,148.728-19.1,55.747,13.142,112.108,53.23,140.317,113.738C1465.5,600.138,1439.682,696.266,1384.918,756.526Z"></path></g></svg>